<?xml version="1.0" encoding="UTF-8"?>
<svg xmlns="http://www.w3.org/2000/svg" xmlns:xlink="http://www.w3.org/1999/xlink" viewBox="0 0 64 64" width="64px" height="64px">
<g id="surface131602036">
<path style=" stroke:none;fill-rule:nonzero;fill:rgb(100%,100%,100%);fill-opacity:1;" d="M 55.992188 16.59375 C 57.640625 17.660156 58.113281 19.863281 57.046875 21.511719 L 52.921875 27.886719 C 53.179688 29.21875 53.332031 30.589844 53.332031 32 C 53.332031 43.777344 43.777344 53.332031 32 53.332031 C 20.222656 53.332031 10.667969 43.777344 10.667969 32 C 10.667969 20.222656 20.222656 10.667969 32 10.667969 C 37.324219 10.667969 42.1875 12.621094 45.929688 15.847656 L 33.316406 35.34375 L 26.070312 27.050781 C 25.101562 25.9375 23.421875 25.820312 22.3125 26.792969 C 21.199219 27.761719 21.085938 29.441406 22.054688 30.550781 L 31.617188 41.519531 C 32.132812 42.097656 32.863281 42.4375 33.625 42.4375 C 33.699219 42.4375 33.761719 42.425781 33.820312 42.425781 C 34.65625 42.363281 35.414062 41.921875 35.867188 41.21875 L 51.074219 17.648438 C 52.140625 16 54.34375 15.527344 55.992188 16.59375 Z M 55.992188 16.59375 "/>
</g>
</svg>
